<?xml version="1.0" encoding="utf-8"?>
<!-- Generator: Adobe Illustrator 20.0.0, SVG Export Plug-In . SVG Version: 6.00 Build 0)  -->
<svg version="1.1" id="Layer_1" xmlns="http://www.w3.org/2000/svg" xmlns:xlink="http://www.w3.org/1999/xlink" x="0px" y="0px"
	 viewBox="0 0 24 24" style="enable-background:new 0 0 24 24;" xml:space="preserve">
<style type="text/css">
	.st0{fill:#FFFFFF;}
</style>
<g id="p3MEBY.tif">
	<g>
		<path class="st0" d="M17.1,8.3c0,1.3-0.3,2.6-1,3.7c-0.1,0.1-0.1,0.2,0,0.4c1.9,1.9,3.8,3.8,5.7,5.7c0.6,0.6,1,1.2,1,2.1
			c0,1.1-0.7,2.1-1.7,2.6c-1,0.4-2.2,0.2-3-0.6c-2.1-2.1-4.2-4.2-6.3-6.3c-0.1-0.1-0.2-0.2-0.4-0.1C7.5,17,3.4,14.9,2,11
			C0.3,6.4,3.4,1.3,8.3,0.7c4.1-0.5,7.9,2.2,8.6,6.3C17,7.4,17.1,7.9,17.1,8.3z M3.3,8.4c0,3.3,2.7,6,6,6c3.3,0,6-2.7,6-6
			c0-3.3-2.7-6-6-6C6,2.3,3.3,5,3.3,8.4z M19.7,17.8c0-0.2-0.1-0.4-0.3-0.6c-0.8-0.8-1.7-1.7-2.5-2.5c-0.2-0.2-0.4-0.3-0.6-0.3
			c-0.4,0-0.6,0.3-0.5,0.6c0,0.2,0.1,0.4,0.3,0.5c0.9,0.9,1.7,1.7,2.6,2.6c0.1,0.1,0.4,0.2,0.5,0.3C19.4,18.4,19.7,18.2,19.7,17.8z"
			/>
		<path class="st0" d="M9.4,13.5c-1.2,0-2.4-0.5-3.5-1.4c-0.3-0.2-0.3-0.5-0.1-0.8c0.2-0.2,0.5-0.2,0.8,0c0.8,0.7,1.7,1.1,2.7,1.1
			c1.2,0,2.2-0.4,3.1-1.2c0.1-0.1,0.3-0.3,0.5-0.2c0.2,0,0.4,0.1,0.4,0.3c0.1,0.2,0,0.4-0.1,0.6C12.1,12.9,10.9,13.5,9.4,13.5z"/>
	</g>
</g>
</svg>
