<?xml version="1.0" encoding="utf-8"?>
<!-- Generator: Adobe Illustrator 20.0.0, SVG Export Plug-In . SVG Version: 6.00 Build 0)  -->
<svg version="1.1" id="Layer_1" xmlns="http://www.w3.org/2000/svg" xmlns:xlink="http://www.w3.org/1999/xlink" x="0px" y="0px"
	 viewBox="0 0 24 24" style="enable-background:new 0 0 24 24;" xml:space="preserve">
<style type="text/css">
	.st0{fill:#FFFFFF;}
</style>
<g>
	<path class="st0" d="M13.5,18.5c0-1.1,0.3-2.1,0.8-3c0.5-0.9,1-1.8,1.6-2.8c0.6-1.1,0.9-2.2,0.7-3.4c-0.2-1.8-1.3-3-3-3.5
		C12.4,5.4,11.1,5.5,9.9,6C8,6.8,7.1,8.6,7.4,10.6c0.1,1,0.6,1.8,1,2.7c0.5,0.9,1,1.8,1.4,2.7c0.3,0.6,0.4,1.4,0.6,2.1
		c0,0.1,0,0.3,0,0.5c-0.4,0-0.9,0-1.3,0c-0.1,0-0.1-0.1-0.1-0.2c0-1-0.5-1.9-1-2.8c-0.5-0.9-1-1.8-1.5-2.7C5.9,11.5,5.7,10.1,6,8.7
		c0.4-1.9,1.5-3.2,3.2-4c2-0.9,4-0.8,6,0.2c1.9,1,2.8,2.7,2.9,4.8c0.1,1.4-0.4,2.7-1,3.9c-0.3,0.6-0.7,1.1-1,1.7
		c-0.6,1-1.1,2-1.1,3.2C14.5,18.5,14,18.5,13.5,18.5z"/>
	<path class="st0" d="M12,22.1c-0.6,0-1.3,0-1.9,0c-0.4,0-0.6-0.2-0.6-0.5c0-0.3,0.2-0.5,0.6-0.5c1.3,0,2.6,0,3.8,0
		c0.4,0,0.6,0.2,0.6,0.6c0,0.3-0.2,0.5-0.6,0.5C13.3,22.1,12.6,22.1,12,22.1z"/>
	<path class="st0" d="M12,20.3c-0.7,0-1.4,0-2,0c-0.4,0-0.6-0.2-0.6-0.5c0-0.3,0.2-0.5,0.6-0.5c1.4,0,2.8,0,4.1,0
		c0.4,0,0.6,0.2,0.6,0.5c0,0.3-0.2,0.5-0.6,0.5C13.4,20.3,12.7,20.3,12,20.3z"/>
	<path class="st0" d="M4.3,9.1c0,0.5,0,0.9,0,1.4c-1,0-2,0-3,0c0-0.5,0-0.9,0-1.4C2.3,9.1,3.3,9.1,4.3,9.1z"/>
	<path class="st0" d="M22.6,9.1c0,0.5,0,0.9,0,1.4c-1,0-2,0-3,0c0-0.5,0-0.9,0-1.4C20.7,9.1,21.6,9.1,22.6,9.1z"/>
	<path class="st0" d="M2.8,15.5c-0.2-0.5-0.4-0.9-0.6-1.3c0.9-0.4,1.7-0.8,2.6-1.2c0.2,0.5,0.4,0.9,0.6,1.3
		C4.6,14.8,3.7,15.1,2.8,15.5z"/>
	<path class="st0" d="M2.5,5C2.8,4.6,3,4.2,3.3,3.8c0.8,0.6,1.6,1.1,2.4,1.7C5.4,5.9,5.1,6.3,4.8,6.7C4,6.1,3.3,5.6,2.5,5z"/>
	<path class="st0" d="M18.3,5.5c0.8-0.6,1.6-1.1,2.4-1.7C21,4.2,21.2,4.6,21.5,5c-0.8,0.6-1.6,1.1-2.4,1.7
		C18.9,6.3,18.6,5.9,18.3,5.5z"/>
	<path class="st0" d="M18.6,14.5c0.2-0.5,0.4-0.9,0.6-1.4c0.9,0.4,1.8,0.7,2.6,1.1c-0.2,0.5-0.4,0.9-0.6,1.4
		C20.3,15.2,19.5,14.8,18.6,14.5z"/>
	<path class="st0" d="M6.2,1.4c0.4-0.2,0.9-0.5,1.3-0.7c0.4,0.8,0.9,1.6,1.3,2.4C8.4,3.3,7.9,3.5,7.5,3.8C7.1,3,6.6,2.2,6.2,1.4z"/>
	<path class="st0" d="M16.5,3.8c-0.4-0.2-0.9-0.5-1.3-0.7c0.4-0.8,0.9-1.6,1.3-2.4c0.4,0.2,0.9,0.5,1.3,0.7
		C17.4,2.2,16.9,3,16.5,3.8z"/>
	<path class="st0" d="M12.8,2.6c-0.5,0-0.9,0-1.4,0c0-0.9,0-1.7,0-2.6c0.5,0,0.9,0,1.4,0C12.8,0.9,12.8,1.7,12.8,2.6z"/>
	<path class="st0" d="M10,22.8c1.3,0,2.6,0,4,0c-0.4,0.4-0.8,0.7-1.2,1c-0.1,0.1-0.3,0.1-0.5,0.1c-0.7,0.1-1.3-0.1-1.7-0.7
		C10.4,23.1,10.2,23,10,22.8z"/>
</g>
</svg>
